<svg width="80" height="80" viewBox="0 0 80 80" fill="none" xmlns="http://www.w3.org/2000/svg">
<path d="M48.3823 29.565L45.4992 29.1452C45.4108 29.1452 45.3224 29.1452 45.3224 29.2334L44.1018 30.7994C44.0322 30.9015 44.0009 31.0249 44.0134 31.1478C44.0134 31.236 43.9251 31.4123 43.8409 31.3242L42.877 31.0639C42.7045 31.0639 42.5277 31.0639 42.4562 31.236L38.525 36.274C38.4366 36.3622 38.3482 36.3622 38.1757 36.3622L36.6899 35.6653C36.6269 35.6258 36.5539 35.6048 36.4795 35.6048C36.405 35.6048 36.3321 35.6258 36.269 35.6653L35.4441 36.1943C35.3814 36.2348 35.3083 36.2563 35.2336 36.2563C35.159 36.2563 35.0859 36.2348 35.0232 36.1943L34.6739 36.0221C34.617 35.9965 34.5554 35.9829 34.493 35.9823C34.4306 35.9817 34.3687 35.994 34.3113 36.0185C34.2539 36.0429 34.2023 36.079 34.1596 36.1245C34.117 36.1699 34.0843 36.2237 34.0636 36.2824L33.7984 37.5C33.7669 37.6293 33.7754 37.765 33.8227 37.8894C33.87 38.0138 33.954 38.121 34.0636 38.1969L34.7622 38.6167L36.5931 39.7503L37.4686 40.2709C37.5915 40.3429 37.7343 40.3736 37.876 40.3584C38.0177 40.3433 38.1508 40.2832 38.2556 40.1869L39.7372 38.877C39.8648 38.8046 40.0124 38.7751 40.1581 38.7931L40.579 39.0534C40.7515 39.1415 40.9283 39.1415 40.9999 38.9652L41.7827 38.2683C41.8366 38.2142 41.9051 38.177 41.9799 38.1614C42.0547 38.1457 42.1325 38.1522 42.2036 38.1801L43.34 38.7049C43.4277 38.7336 43.521 38.7405 43.6119 38.7251C43.7028 38.7098 43.7886 38.6726 43.8619 38.6167L44.388 37.9198L48.3192 32.8818C48.4917 32.6173 48.4034 32.2688 48.054 32.2688L47.2291 32.0841C47.0523 32.0841 46.9681 31.8238 47.0523 31.6642L48.4497 30.0101C48.6433 29.8337 48.5549 29.565 48.3823 29.565Z" fill="white"/>
<path d="M35.28 39.7671C35.1917 39.6789 35.1075 39.7671 35.1075 39.8553L35.5284 40.9846V41.2491L35.179 42.727C35.173 42.7748 35.1779 42.8234 35.1932 42.8692C35.2085 42.915 35.2338 42.9567 35.2674 42.9915L36.3154 43.7724C36.3638 43.8146 36.4258 43.8379 36.4901 43.8379C36.5544 43.8379 36.6164 43.8146 36.6648 43.7724L37.8012 42.8151C37.8352 42.7817 37.8763 42.7564 37.9215 42.7411C37.9667 42.7259 38.0148 42.721 38.0621 42.727L39.2869 42.5548C39.3711 42.5548 39.3711 42.4667 39.2869 42.3785L35.28 39.7671Z" fill="white"/>
<path d="M34.9305 43.5119C34.9157 43.4911 34.8962 43.4741 34.8735 43.4624C34.8508 43.4507 34.8256 43.4446 34.8 43.4446C34.7745 43.4446 34.7493 43.4507 34.7266 43.4624C34.7039 43.4741 34.6843 43.4911 34.6696 43.5119L33.7941 43.9317C33.7827 43.9317 33.7714 43.934 33.7609 43.9385C33.7504 43.943 33.7409 43.9495 33.7331 43.9578C33.7252 43.966 33.7191 43.9758 33.7151 43.9865C33.7111 43.9972 33.7094 44.0085 33.7099 44.0199L31.7865 48.7221H31.8748L32.2957 48.5499V48.6339L30.8984 50.901C30.8984 50.9892 30.8984 50.9892 30.9825 50.9892L35.8733 46.0225C35.9617 46.0225 35.9617 45.9344 35.9617 45.8462L36.0501 44.5405C36.0501 44.4523 36.0501 44.3684 35.9617 44.3684L34.9305 43.5119Z" fill="white"/>
<path d="M29.9977 80.0001L28.0616 76.3853L31.4287 74.0552L32.0769 74.9578L31.012 75.6757C30.8301 75.8062 30.6404 75.9254 30.4438 76.0326C30.2662 76.1334 30.0803 76.2191 29.8883 76.2887L33.5079 77.162L33.2596 78.1864L29.6315 77.3089C29.7268 77.4065 29.8154 77.5102 29.8967 77.6196C29.9767 77.7246 30.0524 77.8379 30.1282 77.9597L30.3597 78.3795L30.9742 79.5047L29.9977 80.0001Z" fill="#FFCD1E"/>
<path d="M14.1385 66.1875C14.7152 65.5283 15.6327 65.4611 16.4534 66.1875L18.137 67.6611L14.7699 71.4942L13.4314 70.2893C12.556 69.5252 12.2361 68.7233 12.8506 68.0179C12.983 67.8522 13.1613 67.7289 13.3633 67.6632C13.5652 67.5976 13.7821 67.5924 13.987 67.6485C13.8359 67.4261 13.7683 67.1577 13.796 66.8904C13.8237 66.6232 13.945 66.3743 14.1385 66.1875ZM15.3423 69.3866L14.6604 68.7946C14.2395 68.421 13.8776 68.316 13.6587 68.5679C13.4398 68.8198 13.5914 69.1515 14.0249 69.5252L14.7025 70.1171L15.3423 69.3866ZM14.7951 66.9012C14.4963 67.2454 14.6562 67.6653 15.1276 68.0767L15.9021 68.7485L16.7817 67.7451L16.0073 67.0733C15.5359 66.6619 15.0982 66.5527 14.7951 66.9012Z" fill="white"/>
<path d="M6.55402 62.686L8.87735 60.9227C9.94642 60.1082 11.1712 60.125 11.9583 61.1536C12.7454 62.1822 12.4339 63.3662 11.3648 64.1765L9.04149 65.9398L8.45646 65.1757L10.8724 63.3368C11.0028 63.2576 11.1151 63.152 11.202 63.0268C11.2889 62.9015 11.3485 62.7595 11.3768 62.6099C11.4052 62.4602 11.4017 62.3063 11.3666 62.1581C11.3315 62.0098 11.2656 61.8706 11.1732 61.7494C11.0807 61.6282 10.9637 61.5277 10.8299 61.4545C10.696 61.3813 10.5482 61.3369 10.396 61.3243C10.2439 61.3116 10.0908 61.331 9.94661 61.3812C9.80245 61.4314 9.67046 61.5112 9.55919 61.6155L7.13906 63.4502L6.55402 62.686Z" fill="white"/>
<path d="M8.94895 56.7536L4.43698 59.1257L3.98663 58.286L8.50701 55.9013L8.94895 56.7536Z" fill="white"/>
<path d="M5.17342 50.2587L6.09098 49.9438L7.07586 52.7861L2.24823 54.4655L1.93256 53.5545L5.83844 52.211L5.17342 50.2587Z" fill="white"/>
<path d="M2.19362 42.9537C3.59098 42.7606 4.84945 43.5625 5.08094 45.2376L5.31244 46.917L0.261726 47.6097L0.0344403 45.9303C-0.201259 44.209 0.800467 43.1426 2.19362 42.9537ZM2.3241 43.9067C2.11939 43.9251 1.92061 43.985 1.73997 44.0827C1.55934 44.1805 1.40066 44.3142 1.27371 44.4754C1.14677 44.6366 1.05424 44.8221 1.00181 45.0203C0.949373 45.2185 0.938147 45.4253 0.968822 45.6281L1.08667 46.5097L4.21811 46.0899L4.09605 45.2124C4.07113 45.009 4.005 44.8128 3.9017 44.6357C3.79839 44.4586 3.66006 44.3043 3.49511 44.1822C3.33017 44.0601 3.14204 43.9727 2.94218 43.9253C2.74232 43.878 2.53489 43.8716 2.33251 43.9067H2.3241Z" fill="white"/>
<path d="M0.737321 30.4046L1.69274 30.5935L1.43179 31.895L5.48499 32.7011L5.29558 33.6457L1.24238 32.8397L0.981433 34.137L0.0302124 33.948L0.737321 30.4046Z" fill="white"/>
<path d="M3.52353 22.684L8.2291 24.653L7.85452 25.5431L5.94787 24.7454L5.10609 26.7438L7.01273 27.5415L6.63813 28.4274L1.93256 26.4583L2.30714 25.5683L4.20959 26.366L5.05137 24.3675L3.14893 23.5698L3.52353 22.684Z" fill="white"/>
<path d="M7.00019 18.6492L7.90511 19.2622L8.91946 17.7675L9.72336 18.3091L8.70901 19.8037L9.61393 20.4167L10.8345 18.624L11.6384 19.1656L9.87488 21.756L5.66595 18.9011L7.42528 16.3107L8.22919 16.8565L7.00019 18.6492Z" fill="white"/>
<path d="M17.1732 13.3046L14.0502 9.27841L16.5335 7.36395L17.127 8.12806L15.4097 9.45474L16.0831 10.3196L17.5142 9.21123L18.1118 9.97954L16.6724 11.0921L17.9351 12.7211L17.1732 13.3046Z" fill="white"/>
<path d="M23.5707 3.36703L24.8797 5.96583C25.4816 7.16237 25.2417 8.3589 24.0842 8.94248C22.9267 9.52605 21.8156 9.00126 21.2137 7.80052L19.9047 5.21432L20.7676 4.79448L22.1312 7.49824C22.1965 7.62587 22.2863 7.73944 22.3955 7.83246C22.5047 7.92549 22.6312 7.99614 22.7678 8.04039C22.9044 8.08464 23.0484 8.10161 23.1916 8.09035C23.3348 8.07909 23.4743 8.03981 23.6023 7.97475C23.7302 7.90969 23.8441 7.82013 23.9373 7.71118C24.0306 7.60223 24.1014 7.47603 24.1458 7.33978C24.1901 7.20352 24.2072 7.05988 24.1959 6.91707C24.1846 6.77425 24.1452 6.63506 24.08 6.50742L22.7163 3.79947L23.5707 3.36703Z" fill="white"/>
<path d="M30.8143 0.990875L31.071 1.92291L29.8084 2.27558L30.9069 6.25144L29.9725 6.50334L28.8782 2.53168L27.6155 2.88434L27.3546 1.94811L30.8143 0.990875Z" fill="white"/>
<path d="M38.8619 0L39.0723 2.90108C39.1691 4.23616 38.4831 5.24797 37.1909 5.34033C35.8988 5.4327 35.0865 4.53005 34.9813 3.19076L34.7708 0.293885L35.7347 0.222513L35.9493 3.24534C35.942 3.39945 35.9675 3.55335 36.0242 3.69689C36.0809 3.84044 36.1675 3.97037 36.2782 4.07811C36.3889 4.18586 36.5212 4.26897 36.6664 4.32198C36.8117 4.37498 36.9666 4.39667 37.1208 4.38562C37.2751 4.37456 37.4253 4.33101 37.5614 4.25784C37.6976 4.18467 37.8167 4.08353 37.9108 3.96111C38.0049 3.83869 38.0719 3.69775 38.1075 3.5476C38.143 3.39745 38.1462 3.24149 38.1169 3.09L37.898 0.0671739L38.8619 0Z" fill="white"/>
<path d="M45.1247 5.52967L44.2114 3.69918L43.6347 3.62781L43.4201 5.30716L42.4604 5.18121L43.1128 0.143158L44.91 0.37407C46.219 0.542005 46.7325 1.3271 46.5936 2.30532C46.5531 2.66175 46.3993 2.99589 46.1547 3.2588C45.9101 3.52171 45.5875 3.69958 45.2341 3.76636L46.2779 5.68501L45.1247 5.52967ZM43.761 2.66638L44.7206 2.78813C44.8222 2.81015 44.9271 2.81168 45.0292 2.79263C45.1313 2.77358 45.2286 2.73433 45.3152 2.67721C45.4019 2.62009 45.4763 2.54625 45.5339 2.46002C45.5915 2.3738 45.6313 2.27695 45.6508 2.17517C45.664 2.06992 45.6545 1.96308 45.623 1.86176C45.5916 1.76044 45.5389 1.66696 45.4684 1.58754C45.3979 1.50811 45.3113 1.44456 45.2143 1.4011C45.1173 1.35764 45.0122 1.33528 44.9058 1.3355L43.9462 1.21374L43.761 2.66638Z" fill="white"/>
<path d="M51.4928 2.7961L51.1519 3.8331L52.8691 4.39988L52.5661 5.31932L50.8488 4.75254L50.5079 5.78954L52.5703 6.46967L52.2799 7.38912L49.3041 6.4067L50.8993 1.57437L53.8792 2.55259L53.5762 3.47623L51.4928 2.7961Z" fill="white"/>
<path d="M65.0329 7.64127L65.3106 11.7305L61.2659 12.4694L61.047 11.3736L62.3097 11.1553C62.5412 11.1133 62.7642 11.0797 62.9747 11.0629C63.1778 11.0461 63.3819 11.0461 63.585 11.0629L60.6387 8.77902L61.2869 7.93935L64.2332 10.2233C64.1856 10.0961 64.1476 9.9656 64.1195 9.83282C64.0873 9.6946 64.0648 9.55432 64.0522 9.41298C64.0522 9.27443 64.0185 9.1149 64.0059 8.94696L63.9091 7.68745L65.0329 7.64127Z" fill="#FFCD1E"/>
<path d="M71.8935 26.1558L72.9541 24.4093L72.71 23.8845L71.1695 24.5982L70.7487 23.725L75.3785 21.5838L76.1445 23.2212C76.7001 24.4135 76.3086 25.2658 75.4164 25.6814C75.0922 25.8375 74.7264 25.8859 74.3726 25.8194C74.0188 25.7529 73.6958 25.5751 73.4508 25.312L72.3817 27.218L71.8935 26.1558ZM73.5771 23.4773L73.9979 24.3505C74.0334 24.4482 74.0882 24.5378 74.159 24.614C74.2298 24.6902 74.3153 24.7514 74.4102 24.7941C74.5052 24.8368 74.6078 24.86 74.712 24.8624C74.8161 24.8648 74.9196 24.8464 75.0165 24.8082C75.1114 24.7624 75.1955 24.6971 75.2633 24.6166C75.331 24.536 75.3809 24.4421 75.4095 24.3409C75.4382 24.2397 75.445 24.1336 75.4295 24.0296C75.414 23.9256 75.3765 23.8261 75.3195 23.7376L74.8987 22.8643L73.5771 23.4773Z" fill="white"/>
<path d="M76.9651 34.2758C76.453 34.3877 75.9191 34.346 75.4307 34.1559C74.9423 33.9658 74.5213 33.6357 74.2206 33.2073C73.92 32.7789 73.7531 32.2713 73.7412 31.7485C73.7292 31.2257 73.8726 30.711 74.1534 30.2694C74.4341 29.8277 74.8396 29.4789 75.3188 29.2667C75.798 29.0545 76.3294 28.9886 76.8461 29.0771C77.3628 29.1657 77.8416 29.4048 78.2223 29.7644C78.603 30.1239 78.8685 30.5878 78.9853 31.0976C79.1397 31.7863 79.0136 32.5079 78.6348 33.1039C78.256 33.6998 77.6554 34.1214 76.9651 34.2758ZM76.7504 33.3353C77.0735 33.2582 77.3666 33.0875 77.5926 32.8446C77.8187 32.6018 77.9676 32.2976 78.0208 31.9705C78.0739 31.6433 78.0287 31.3078 77.8911 31.0062C77.7534 30.7046 77.5294 30.4503 77.2471 30.2755C76.9649 30.1006 76.6371 30.0129 76.305 30.0235C75.973 30.0341 75.6514 30.1425 75.381 30.335C75.1105 30.5275 74.9032 30.7955 74.7852 31.1052C74.6671 31.415 74.6435 31.7527 74.7175 32.0758C74.7661 32.293 74.8575 32.4984 74.9863 32.68C75.1152 32.8617 75.2789 33.0159 75.4681 33.1339C75.6572 33.2519 75.868 33.3312 76.0881 33.3672C76.3083 33.4032 76.5334 33.3952 76.7504 33.3437V33.3353Z" fill="white"/>
<path d="M76.1697 41.6186L75.2942 42.0006C74.8943 41.5503 74.6676 40.9731 74.6544 40.3716C74.6489 40.0215 74.7126 39.6738 74.8418 39.3482C74.971 39.0227 75.1632 38.7257 75.4075 38.4742C75.6518 38.2228 75.9433 38.0218 76.2654 37.8827C76.5876 37.7436 76.934 37.6692 77.285 37.6637C77.636 37.6582 77.9846 37.7217 78.311 37.8506C78.6374 37.9794 78.9351 38.1712 79.1872 38.4149C79.4393 38.6585 79.6408 38.9493 79.7802 39.2707C79.9197 39.592 79.9942 39.9376 79.9998 40.2877C80.0089 40.8878 79.8029 41.4714 79.4189 41.9334L78.5309 41.5808C78.8566 41.2428 79.0351 40.79 79.0275 40.3213C79.0111 40.0491 78.9284 39.785 78.7867 39.5518C78.645 39.3186 78.4485 39.1234 78.2142 38.9829C77.9799 38.8425 77.7149 38.761 77.4419 38.7457C77.169 38.7303 76.8965 38.7814 76.6478 38.8947C76.3991 39.0079 76.1818 39.1799 76.0147 39.3956C75.8476 39.6114 75.7357 39.8645 75.6886 40.1331C75.6415 40.4017 75.6607 40.6777 75.7445 40.9373C75.8283 41.1968 75.9743 41.4321 76.1697 41.6228V41.6186Z" fill="white"/>
<path d="M73.6653 49.0833L73.9052 47.8867L76.4642 46.4467L74.2756 46.0269L74.465 45.0822L79.4694 46.0688L79.28 47.0135L77.2092 46.5936L78.9349 48.76L78.695 49.9523L76.7252 47.3577L73.6653 49.0833Z" fill="white"/>
<path d="M76.2115 54.3354L75.1972 53.9156L74.5111 55.595L73.6146 55.2297L74.2965 53.5504L73.2863 53.1305L72.4445 55.1331L71.5438 54.7679L72.7265 51.871L77.4532 53.7939L76.2662 56.6907L75.3697 56.3255L76.2115 54.3354Z" fill="white"/>
<path d="M72.4826 63.2696L71.6829 62.7322L72.4027 61.6196L68.9303 59.3861L69.4522 58.58L72.9246 60.8135L73.6485 59.701L74.465 60.2257L72.4826 63.2696Z" fill="white"/>
<path d="M64.6792 66.7963C64.0184 66.1665 63.9763 65.1631 64.9064 64.1975C65.1666 63.9148 65.4827 63.689 65.8348 63.5343C66.1869 63.3797 66.5673 63.2996 66.952 63.299L67.2298 64.2352C66.9278 64.2266 66.6272 64.2795 66.3465 64.3907C66.0657 64.5019 65.8106 64.669 65.5967 64.8818C65.1337 65.3646 65.0453 65.8138 65.3021 66.0615C65.5588 66.3092 65.9418 66.1707 66.4722 65.7635C67.6296 64.8776 68.362 64.8986 68.9175 65.4318C69.4731 65.965 69.5952 67.0272 68.7197 67.9508C68.2863 68.4161 67.7019 68.7136 67.0698 68.7905L66.75 67.9214C67.2305 67.8611 67.676 67.6389 68.0126 67.2917C68.3704 66.9222 68.5766 66.4982 68.282 66.2127C67.9874 65.9272 67.7348 66.0951 67.1372 66.536C66.2575 67.1699 65.4662 67.552 64.6792 66.7963Z" fill="white"/>
<path d="M62.8022 71.6578L62.1708 70.7678L60.6935 71.809L60.1337 71.0197L61.611 69.9785L60.9797 69.0884L59.2035 70.3479L58.6437 69.5544L61.207 67.7491L64.1532 71.9013L61.59 73.7108L61.0302 72.9173L62.8022 71.6578Z" fill="white"/>
<path d="M53.3531 73.3414L55.3103 72.4723L55.2597 71.4353L56.253 71.0155L56.4088 76.5196L55.6091 76.8722L51.6232 73.0643L52.6123 72.6445L53.3531 73.3414ZM54.0855 74.0761L55.466 75.4532L55.365 73.5093L54.0855 74.0761Z" fill="white"/>
<path d="M47.2964 79.4334L47.0692 78.4888L48.3613 78.1823L47.4059 74.1728L48.3445 73.9503L49.2999 77.9598L50.592 77.6533L50.8193 78.5937L47.2964 79.4334Z" fill="white"/>
</svg>
