<svg width="48" height="48" viewBox="0 0 48 48" fill="none" xmlns="http://www.w3.org/2000/svg">
<rect width="48" height="48" fill="#323238"/>
<path d="M36.1462 24.0731C36.1462 17.4046 30.7416 12 24.0731 12C17.4046 12 12 17.4046 12 24.0731C12 30.1002 16.4142 35.0945 22.1867 36V27.563H19.1212V24.0731H22.1867V21.4132C22.1867 18.3879 23.9882 16.7161 26.7471 16.7161C28.0676 16.7161 29.4494 16.9519 29.4494 16.9519V19.923H27.9261C26.4264 19.923 25.9595 20.8544 25.9595 21.8094V24.0731H29.3079L28.7726 27.563H25.9595V36C31.732 35.0945 36.1462 30.1002 36.1462 24.0731Z" fill="white"/>
</svg>
