<svg width="48" height="48" viewBox="0 0 48 48" fill="none" xmlns="http://www.w3.org/2000/svg">
<rect width="48" height="48" fill="#323238"/>
<g clip-path="url(#clip0_61385_216)">
<path d="M22.724 35.9999C21.617 35.9999 20.324 35.9939 19.048 35.9209C17.1811 35.9629 15.3729 35.2669 14.016 33.9839C12.7328 32.6275 12.0367 30.8196 12.079 28.9529C12 27.5099 12 26.0509 12 24.6399C12 24.4265 12 24.2132 12 23.9999C12 23.7865 12 23.5732 12 23.3599C12 21.9489 12 20.4899 12.079 19.0479C12.037 17.1809 12.733 15.3728 14.016 14.0159C15.3729 12.7329 17.1811 12.0369 19.048 12.0789C20.328 12.0059 21.617 11.9999 22.724 11.9999H25.277C26.384 11.9999 27.677 12.0059 28.954 12.0789C30.8207 12.0366 32.6286 12.7327 33.985 14.0159C35.268 15.3728 35.964 17.1809 35.922 19.0479C36 20.4899 36 21.9489 36 23.3609C36 23.5742 36 23.7875 36 24.0009C36 24.2142 36 24.4272 36 24.6399C36 26.0509 36 27.5099 35.921 28.9539C35.9633 30.8206 35.2672 32.6285 33.984 33.9849C32.6276 35.2681 30.8197 35.9642 28.953 35.9219C27.672 35.9949 26.383 36.0009 25.276 36.0009L22.724 35.9999Z" fill="white"/>
<path d="M29.6061 18.7885C29.8425 18.9465 30.1206 19.0308 30.405 19.0308L30.406 19.0318C30.7873 19.0313 31.1528 18.8795 31.4222 18.6097C31.6916 18.3399 31.843 17.9741 31.843 17.5928C31.843 17.3084 31.7586 17.0304 31.6006 16.7939C31.4426 16.5575 31.218 16.3731 30.9553 16.2643C30.6925 16.1555 30.4034 16.127 30.1244 16.1825C29.8455 16.238 29.5893 16.3749 29.3882 16.576C29.1871 16.7771 29.0501 17.0334 28.9946 17.3123C28.9391 17.5913 28.9676 17.8804 29.0764 18.1431C29.1853 18.4059 29.3696 18.6305 29.6061 18.7885Z" fill="#323238"/>
<path fill-rule="evenodd" clip-rule="evenodd" d="M24.0003 30.1555C22.7828 30.1553 21.5927 29.7941 20.5805 29.1176C19.5682 28.441 18.7794 27.4795 18.3136 26.3546C17.8478 25.2298 17.726 23.992 17.9637 22.798C18.2013 21.6039 18.7877 20.5071 19.6487 19.6462C20.5097 18.7854 21.6066 18.1992 22.8007 17.9618C23.9948 17.7243 25.2325 17.8463 26.3573 18.3122C27.4821 18.7782 28.4435 19.5672 29.1199 20.5796C29.7963 21.5919 30.1573 22.782 30.1573 23.9995C30.1557 25.632 29.5065 27.1971 28.3522 28.3514C27.1979 29.5058 25.6327 30.154 24.0003 30.1555ZM24.0002 20.0001C23.2091 20.0001 22.4357 20.2347 21.7779 20.6742C21.1201 21.1137 20.6075 21.7384 20.3047 22.4693C20.002 23.2002 19.9227 24.0045 20.0771 24.7804C20.2314 25.5563 20.6124 26.2691 21.1718 26.8285C21.7312 27.3879 22.4439 27.7689 23.2199 27.9232C23.9958 28.0775 24.8001 27.9983 25.531 27.6956C26.2619 27.3928 26.8866 26.8801 27.3261 26.2223C27.7656 25.5645 28.0002 24.7912 28.0002 24.0001C28.0002 22.9392 27.5788 21.9218 26.8286 21.1716C26.0785 20.4215 25.0611 20.0001 24.0002 20.0001Z" fill="#323238"/>
</g>
<defs>
<clipPath id="clip0_61385_216">
<rect width="24" height="24" fill="white" transform="translate(12 11.9999)"/>
</clipPath>
</defs>
</svg>
