<svg width="48" height="48" viewBox="0 0 48 48" fill="none" xmlns="http://www.w3.org/2000/svg">
<rect width="48" height="48" fill="#323238"/>
<g clip-path="url(#clip0_61385_205)">
<path d="M36.6849 16.8454C35.7603 17.2359 34.7804 17.4936 33.7769 17.6099C34.8352 17.0044 35.627 16.0517 36.0048 14.9295C35.0115 15.4966 33.9234 15.8957 32.7882 16.1092C32.0948 15.3977 31.1931 14.9025 30.2007 14.6882C29.2084 14.4739 28.1715 14.5504 27.2254 14.9078C26.2792 15.2652 25.4677 15.8869 24.8968 16.6917C24.3259 17.4966 24.022 18.4472 24.0248 19.4196C24.0229 19.7917 24.0668 20.1627 24.1556 20.525C22.1396 20.4295 20.1674 19.9286 18.3677 19.0551C16.5679 18.1816 14.9812 16.9551 13.7111 15.4557C13.0631 16.5232 12.8653 17.7866 13.1579 18.9886C13.4505 20.1907 14.2116 21.2409 15.2861 21.9253C14.4786 21.9062 13.6882 21.6984 12.9841 21.3201V21.3803C12.9836 22.4996 13.3885 23.5845 14.1302 24.4508C14.8718 25.317 15.9043 25.9112 17.0523 26.1322C16.6174 26.2449 16.1687 26.3021 15.7181 26.3021C15.3985 26.3027 15.0797 26.2726 14.7664 26.2124C15.09 27.1751 15.7204 28.0169 16.5694 28.6202C17.4184 29.2235 18.4434 29.558 19.5012 29.577C17.7065 30.9253 15.489 31.6563 13.2063 31.6521C12.8024 31.6516 12.3989 31.6284 11.9979 31.5825C14.3045 33.0171 16.9986 33.778 19.7505 33.7721C21.6488 33.7848 23.5308 33.4367 25.2871 32.7481C27.0434 32.0595 28.639 31.0441 29.9811 29.7608C31.3232 28.4776 32.385 26.9522 33.1049 25.2733C33.8248 23.5944 34.1883 21.7955 34.1743 19.9811C34.1743 19.7711 34.1743 19.5611 34.1583 19.3558C35.1498 18.6691 36.0053 17.819 36.6849 16.8454V16.8454Z" fill="white"/>
</g>
<defs>
<clipPath id="clip0_61385_205">
<rect width="24.6857" height="19.2" fill="white" transform="translate(12 14.5711)"/>
</clipPath>
</defs>
</svg>
