<svg width="48" height="48" viewBox="0 0 48 48" fill="none" xmlns="http://www.w3.org/2000/svg">
<rect width="48" height="48" fill="#323238"/>
<g clip-path="url(#clip0_61385_212)">
<path d="M36.5252 18.8108C36.5697 17.7824 36.219 16.7777 35.5499 16.0172C34.8808 15.2566 33.9481 14.8023 32.9563 14.754C30.285 14.6242 27.5607 14.5711 24.7783 14.5711H23.9108C21.1336 14.5711 18.4041 14.6214 15.7328 14.754C14.7408 14.8056 13.8089 15.2624 13.1409 16.0246C12.4729 16.7867 12.1232 17.7921 12.1683 18.8208C12.0484 20.6043 11.9946 22.3804 11.9999 24.1611C12.0052 25.9418 12.0484 27.7206 12.1639 29.5059C12.1169 30.5362 12.4655 31.5438 13.1333 32.3083C13.8012 33.0727 14.734 33.5317 15.7275 33.5847C18.5337 33.7199 21.4131 33.7794 24.3401 33.7748C27.2719 33.7845 30.1428 33.7212 32.9528 33.5847C33.9464 33.5326 34.8796 33.0746 35.5482 32.3109C36.2169 31.5471 36.5666 30.5399 36.5208 29.5095C36.6363 27.7243 36.6892 25.9445 36.6848 24.1602C36.6942 22.377 36.641 20.5939 36.5252 18.8108ZM21.9782 29.0653V19.2413L28.9705 24.151L21.9782 29.0653Z" fill="white"/>
</g>
<defs>
<clipPath id="clip0_61385_212">
<rect width="24.6857" height="19.2" fill="white" transform="translate(12 14.5711)"/>
</clipPath>
</defs>
</svg>
